<mxfile host="app.diagrams.net" agent="Mozilla/5.0 (Windows NT 10.0; Win64; x64) AppleWebKit/537.36 (KHTML, like Gecko) Chrome/135.0.0.0 Safari/537.36" version="26.2.14">
  <diagram name="Page-1" id="3hE22MMm90g3CnRM_2mc">
    <mxGraphModel dx="946" dy="597" grid="1" gridSize="10" guides="1" tooltips="1" connect="1" arrows="1" fold="1" page="1" pageScale="1" pageWidth="827" pageHeight="1169" math="0" shadow="0">
      <root>
        <mxCell id="0" />
        <mxCell id="1" parent="0" />
        <mxCell id="MqW79s354rVQZhPAa-y_-1" value="" style="swimlane;startSize=0;" vertex="1" parent="1">
          <mxGeometry x="119" y="70" width="589" height="410" as="geometry" />
        </mxCell>
        <mxCell id="MqW79s354rVQZhPAa-y_-6" style="edgeStyle=orthogonalEdgeStyle;rounded=0;orthogonalLoop=1;jettySize=auto;html=1;entryX=0;entryY=0.5;entryDx=0;entryDy=0;exitX=0.5;exitY=0;exitDx=0;exitDy=0;endArrow=none;startFill=0;" edge="1" parent="MqW79s354rVQZhPAa-y_-1" source="MqW79s354rVQZhPAa-y_-2" target="MqW79s354rVQZhPAa-y_-5">
          <mxGeometry relative="1" as="geometry" />
        </mxCell>
        <mxCell id="MqW79s354rVQZhPAa-y_-7" value="" style="edgeStyle=orthogonalEdgeStyle;rounded=0;orthogonalLoop=1;jettySize=auto;html=1;endArrow=none;startFill=0;" edge="1" parent="MqW79s354rVQZhPAa-y_-1" source="MqW79s354rVQZhPAa-y_-2" target="MqW79s354rVQZhPAa-y_-3">
          <mxGeometry relative="1" as="geometry" />
        </mxCell>
        <mxCell id="MqW79s354rVQZhPAa-y_-10" value="REST API" style="edgeLabel;html=1;align=center;verticalAlign=middle;resizable=0;points=[];" vertex="1" connectable="0" parent="MqW79s354rVQZhPAa-y_-7">
          <mxGeometry x="-0.0952" y="-1" relative="1" as="geometry">
            <mxPoint as="offset" />
          </mxGeometry>
        </mxCell>
        <mxCell id="MqW79s354rVQZhPAa-y_-2" value="Frontend&lt;div&gt;&amp;lt;&amp;lt; React &amp;gt;&amp;gt;&lt;/div&gt;" style="rounded=1;whiteSpace=wrap;html=1;" vertex="1" parent="MqW79s354rVQZhPAa-y_-1">
          <mxGeometry x="31" y="213" width="120" height="60" as="geometry" />
        </mxCell>
        <mxCell id="MqW79s354rVQZhPAa-y_-9" value="" style="edgeStyle=orthogonalEdgeStyle;rounded=0;orthogonalLoop=1;jettySize=auto;html=1;endArrow=none;startFill=0;" edge="1" parent="MqW79s354rVQZhPAa-y_-1" source="MqW79s354rVQZhPAa-y_-3" target="MqW79s354rVQZhPAa-y_-4">
          <mxGeometry relative="1" as="geometry" />
        </mxCell>
        <mxCell id="MqW79s354rVQZhPAa-y_-3" value="Backend&lt;div&gt;&amp;lt;&amp;lt; Spring Boot &amp;gt;&amp;gt;&lt;/div&gt;" style="rounded=1;whiteSpace=wrap;html=1;" vertex="1" parent="MqW79s354rVQZhPAa-y_-1">
          <mxGeometry x="235" y="213" width="120" height="60" as="geometry" />
        </mxCell>
        <mxCell id="MqW79s354rVQZhPAa-y_-4" value="Database&lt;div&gt;&amp;lt;&amp;lt; PostgresSQL &amp;gt;&amp;gt;&lt;/div&gt;" style="shape=cylinder3;whiteSpace=wrap;html=1;boundedLbl=1;backgroundOutline=1;size=15;" vertex="1" parent="MqW79s354rVQZhPAa-y_-1">
          <mxGeometry x="441" y="190.5" width="120" height="105" as="geometry" />
        </mxCell>
        <mxCell id="MqW79s354rVQZhPAa-y_-8" value="" style="edgeStyle=orthogonalEdgeStyle;rounded=0;orthogonalLoop=1;jettySize=auto;html=1;endArrow=none;endFill=1;startFill=0;" edge="1" parent="MqW79s354rVQZhPAa-y_-1" source="MqW79s354rVQZhPAa-y_-5" target="MqW79s354rVQZhPAa-y_-3">
          <mxGeometry relative="1" as="geometry" />
        </mxCell>
        <mxCell id="MqW79s354rVQZhPAa-y_-5" value="Authentication Server&lt;div&gt;&amp;lt;&amp;lt; KeyCloak &amp;gt;&amp;gt;&lt;/div&gt;" style="rounded=1;whiteSpace=wrap;html=1;" vertex="1" parent="MqW79s354rVQZhPAa-y_-1">
          <mxGeometry x="235" y="88" width="120" height="60" as="geometry" />
        </mxCell>
      </root>
    </mxGraphModel>
  </diagram>
</mxfile>
